<svg width="84" height="66" viewBox="0 0 84 66" fill="none" xmlns="http://www.w3.org/2000/svg">
<path d="M53.7499 0.750092C52.9224 2.23212 52.185 3.76267 51.5416 5.33343C45.2198 4.33364 38.7801 4.33364 32.4582 5.33343C31.8149 3.76267 31.0774 2.23212 30.2499 0.750092C24.2949 1.7676 18.5058 3.58983 13.0416 6.16676C3.27049 20.268 -1.16078 37.3874 0.541566 54.4584C6.90923 59.2454 14.056 62.8963 21.6666 65.2501C23.3995 62.9609 24.9462 60.5365 26.2916 58.0001C23.8086 57.0846 21.422 55.9262 19.1666 54.5418C19.7852 54.1302 20.3703 53.6704 20.9166 53.1668C27.4935 56.3348 34.6998 57.9799 41.9999 57.9799C49.3001 57.9799 56.5063 56.3348 63.0833 53.1668C63.6666 53.6668 64.2499 54.1251 64.8333 54.5418C62.5656 55.9153 60.1814 57.0865 57.7083 58.0418C58.9979 60.6357 60.5032 63.1166 62.2083 65.4584C69.8093 63.1127 76.9437 59.4609 83.2916 54.6668C85.0348 37.5926 80.6 20.4592 70.7916 6.37509C65.3888 3.74483 59.6569 1.85288 53.7499 0.750092V0.750092ZM28.1666 44.7084C26.0815 44.5588 24.1355 43.6071 22.7371 42.0533C21.3387 40.4995 20.5966 38.4644 20.6666 36.3751C20.586 34.2831 21.3244 32.2421 22.725 30.686C24.1255 29.1298 26.0777 28.1812 28.1666 28.0418C30.2555 28.1812 32.2077 29.1298 33.6082 30.686C35.0087 32.2421 35.7472 34.2831 35.6666 36.3751C35.7472 38.4671 35.0087 40.5081 33.6082 42.0642C32.2077 43.6204 30.2555 44.569 28.1666 44.7084V44.7084ZM55.8333 44.7084C53.7482 44.5588 51.8022 43.6071 50.4038 42.0533C49.0053 40.4995 48.2632 38.4644 48.3333 36.3751C48.2527 34.2831 48.9911 32.2421 50.3916 30.686C51.7922 29.1298 53.7443 28.1812 55.8333 28.0418C57.9261 28.1708 59.8845 29.1164 61.2872 30.6749C62.6899 32.2334 63.4246 34.2803 63.3333 36.3751C63.4246 38.4699 62.6899 40.5168 61.2872 42.0753C59.8845 43.6338 57.9261 44.5794 55.8333 44.7084V44.7084Z" fill="#828282"/>
</svg>
