<svg width="97" height="69" viewBox="0 0 97 69" fill="none" xmlns="http://www.w3.org/2000/svg">
<path d="M94.4666 11.5143C93.9208 9.48936 92.8542 7.64266 91.3729 6.15802C89.8917 4.67339 88.0474 3.60259 86.0237 3.05222C78.5199 0.9918 48.5001 0.95826 48.5001 0.95826C48.5001 0.95826 18.4851 0.924717 10.9766 2.89409C8.95413 3.4698 7.11364 4.55574 5.63178 6.04766C4.14993 7.53958 3.07648 9.38739 2.51449 11.4137C0.535532 18.9174 0.516364 34.4808 0.516364 34.4808C0.516364 34.4808 0.497198 50.1208 2.46178 57.5479C3.56386 61.6543 6.79824 64.8983 10.9095 66.0052C18.4899 68.0656 48.4282 68.0991 48.4282 68.0991C48.4282 68.0991 78.448 68.1327 85.9518 66.1681C87.9762 65.6187 89.8222 64.5504 91.3072 63.0688C92.7922 61.5872 93.8647 59.7436 94.4187 57.7204C96.4024 50.2214 96.4168 34.6629 96.4168 34.6629C96.4168 34.6629 96.5126 19.0181 94.4666 11.5143V11.5143ZM38.8976 48.8989L38.9216 20.1489L63.8718 34.5479L38.8976 48.8989V48.8989Z" fill="#EB5757"/>
</svg>
