<svg width="76" height="76" viewBox="0 0 76 76" fill="none" xmlns="http://www.w3.org/2000/svg">
<path fill-rule="evenodd" clip-rule="evenodd" d="M64.6791 11.4707C61.214 7.9827 57.0911 5.217 52.5494 3.3338C48.0077 1.4506 43.1375 0.487349 38.2208 0.499845C17.6042 0.499845 0.820833 17.279 0.8125 37.904C0.8125 44.4957 2.53333 50.929 5.80416 56.604L0.5 75.9832L20.3292 70.7791C25.8141 73.7649 31.9591 75.3305 38.2041 75.3332H38.2208C58.8333 75.3332 75.6166 58.554 75.625 37.929C75.6391 33.0144 74.6791 28.1457 72.8003 23.6043C70.9215 19.0629 68.1613 14.9389 64.6791 11.4707V11.4707ZM38.2208 69.0207H38.2083C32.6396 69.0213 27.1735 67.5231 22.3833 64.6832L21.25 64.0082L9.48333 67.0957L12.6208 55.6249L11.8833 54.4499C8.76994 49.4933 7.1218 43.7573 7.12916 37.904C7.1375 20.7624 21.0833 6.81651 38.2333 6.81651C42.3177 6.80744 46.3633 7.60852 50.136 9.1734C53.9087 10.7383 57.3336 13.0359 60.2125 15.9332C63.1067 18.8167 65.4008 22.2453 66.962 26.0207C68.5232 29.7961 69.3207 33.8435 69.3083 37.929C69.3 55.0707 55.3541 69.0207 38.2208 69.0207ZM55.275 45.7332C54.3375 45.2624 49.7458 43.004 48.8875 42.6915C48.0333 42.379 47.4125 42.2249 46.7875 43.1582C46.1625 44.0915 44.3708 46.1957 43.825 46.8207C43.2791 47.4457 42.7333 47.5207 41.8 47.054C40.8666 46.5874 37.8541 45.5999 34.2833 42.4165C31.5042 39.9374 29.6292 36.879 29.0833 35.9415C28.5375 35.004 29.025 34.4999 29.4958 34.0332C29.9167 33.6165 30.4292 32.9415 30.8958 32.3957C31.3625 31.8499 31.5167 31.4624 31.8292 30.8374C32.1417 30.2124 31.9875 29.6665 31.75 29.1999C31.5167 28.729 29.6458 24.129 28.8667 22.2582C28.1125 20.4457 27.3417 20.6874 26.7667 20.6624C26.1711 20.638 25.5752 20.6269 24.9792 20.629C24.5052 20.6411 24.0389 20.751 23.6094 20.9517C23.1799 21.1525 22.7965 21.4398 22.4833 21.7957C21.625 22.7332 19.2125 24.9915 19.2125 29.5915C19.2125 34.1915 22.5625 38.6374 23.0292 39.2624C23.4958 39.8874 29.6208 49.3249 38.9958 53.3749C41.2291 54.3374 42.9708 54.9124 44.325 55.3457C46.5625 56.0582 48.6 55.954 50.2125 55.7165C52.0083 55.4499 55.7416 53.4582 56.5208 51.2749C57.3 49.0915 57.3 47.2207 57.0666 46.829C56.8333 46.4374 56.2041 46.1999 55.275 45.7332" fill="#6FCF97"/>
</svg>
