<svg width="86" height="84" viewBox="0 0 86 84" fill="none" xmlns="http://www.w3.org/2000/svg">
<path d="M11.0366 41.72H7.45329V69.72C7.45329 71.5765 8.20835 73.357 9.55236 74.6697C10.8964 75.9825 12.7192 76.72 14.62 76.72H32.5366V41.72H11.0366ZM57.62 41.72H39.7033V76.72H57.62C59.5207 76.72 61.3436 75.9825 62.6876 74.6697C64.0316 73.357 64.7866 71.5765 64.7866 69.72V41.72H57.62ZM60.4544 24.22C60.9799 22.5182 61.2326 20.7472 61.2033 18.97C61.2033 12.215 55.5775 6.71997 48.6616 6.71997C42.8495 6.71997 38.9687 11.907 36.464 17.5175C33.995 12.215 29.9172 6.71997 23.5783 6.71997C16.6625 6.71997 11.0366 12.215 11.0366 18.97C11.0366 21.056 11.3197 22.7815 11.7855 24.22H0.286621V38.22H32.5366V31.22H39.7033V38.22H71.9533V24.22H60.4544ZM18.2033 18.97C18.2033 16.0755 20.6149 13.72 23.5783 13.72C26.7603 13.72 29.7201 19.0575 31.4545 24.22H21.7866C20.4465 24.22 18.2033 24.22 18.2033 18.97ZM48.6616 13.72C51.625 13.72 54.0366 16.0755 54.0366 18.97C54.0366 24.22 51.7935 24.22 50.4533 24.22H41.5774C43.4049 18.704 46.0601 13.72 48.6616 13.72Z" fill="white"/>
</svg>
